<?xml version="1.0" encoding="UTF-8"?>
<svg version="1.1" xmlns="http://www.w3.org/2000/svg" width="512" height="512">
<path d="M0 0 C1.87461914 -0.02416992 1.87461914 -0.02416992 3.78710938 -0.04882812 C11.98986569 -0.05318434 17.47665169 0.02078646 23.70700836 5.74008846 C27.22719617 10.13249617 26.74915562 14.92328764 26.68395996 20.32655334 C26.69354319 21.99504079 26.69354319 21.99504079 26.70332003 23.69723505 C26.71858619 27.42620775 26.69809634 31.15412084 26.67773438 34.88305664 C26.68123506 37.55562651 26.68669632 40.2281267 26.69454956 42.90068054 C26.70906954 49.40680743 26.69684927 55.91262206 26.67543632 62.41871936 C26.65141619 69.99524935 26.65314128 77.57170795 26.65574223 85.14826756 C26.65943173 98.66604855 26.63861207 112.18368246 26.60449219 125.70141602 C26.57139468 138.81896684 26.55723508 151.93636334 26.56347656 165.05395508 C26.57024012 179.33903335 26.56778183 193.624047 26.54811716 207.90911573 C26.54707768 208.66443796 26.54603819 209.41976019 26.5449672 210.19797097 C26.54287631 211.7149942 26.54076534 213.23201741 26.53863403 214.74904059 C26.53173803 220.0306826 26.53106918 225.3123047 26.53251648 230.59395027 C26.53395596 237.02944122 26.52426931 243.46480632 26.50057012 249.90025551 C26.48870783 253.18393593 26.48318787 256.46740529 26.48740768 259.75111008 C26.49110886 263.30941904 26.47642154 266.867184 26.45690918 270.4254303 C26.46490107 271.98495181 26.46490107 271.98495181 26.47305441 273.57597882 C26.38903627 282.42377976 26.38903627 282.42377976 23.0625 286.3125 C16.42255299 290.97323204 10.03571287 290.9347253 2.08105469 290.83398438 C0.06583353 290.81253548 -1.94582466 290.83385482 -3.9609375 290.859375 C-11.34593867 290.82989396 -16.80825054 290.61476164 -22.9375 286.3125 C-26.97218444 281.59376138 -26.36494947 276.31644964 -26.33863831 270.43215942 C-26.34543498 269.32210002 -26.35223164 268.21204061 -26.35923427 267.06834304 C-26.3782554 263.34120304 -26.3757662 259.61439026 -26.37329102 255.88720703 C-26.38226543 253.21804579 -26.39238772 250.54891035 -26.40382385 247.87976074 C-26.42873401 241.37760597 -26.43698792 234.8755328 -26.43866099 228.3733343 C-26.44008684 223.08793692 -26.44625294 217.80256645 -26.45576286 212.51717758 C-26.48217944 197.53035658 -26.49602139 182.54360001 -26.49377144 167.55675556 C-26.49365157 166.74895884 -26.4935317 165.94116212 -26.4934082 165.10888672 C-26.49328556 164.30010318 -26.49316292 163.49131964 -26.49303656 162.65802751 C-26.49181705 149.54884762 -26.52052928 136.43992618 -26.5628233 123.33082105 C-26.60591318 109.86877278 -26.62663398 96.40685058 -26.62404197 82.94473159 C-26.62304604 75.38740172 -26.63128779 67.83034285 -26.66357613 60.2730751 C-26.69088957 53.83901656 -26.69741892 47.40535186 -26.67704786 40.97126044 C-26.66725056 37.68910847 -26.67034305 34.40786924 -26.6931076 31.12575912 C-26.71620408 27.5654309 -26.70238057 24.0070921 -26.67921448 20.44680786 C-26.70236051 18.89500169 -26.70236051 18.89500169 -26.72597414 17.3118459 C-26.63942014 11.29955186 -25.74093087 7.95742547 -21.51405567 3.59085453 C-15.5580225 -1.23861144 -7.20159567 -0.0185131 0 0 Z " fill="#48AF2C" transform="translate(393.9375,129.6875)"/>
<path d="M0 0 C2.11422464 -0.01187358 4.22550362 -0.0610782 6.33911133 -0.11157227 C12.94892098 -0.19491916 18.65266667 -0.11495726 24.32617188 3.56591797 C28.43477629 8.68872691 29.26123845 14.88182295 29.19857788 21.24316406 C29.20559784 22.35976017 29.20559784 22.35976017 29.21275961 23.49891376 C29.22463916 25.97073479 29.2152804 28.44199412 29.20581055 30.91381836 C29.20987939 32.69510214 29.21522302 34.4763834 29.22174072 36.25765991 C29.23538293 41.07994689 29.23012846 45.90204068 29.22060347 50.7243309 C29.21299083 55.77879087 29.22005693 60.83323467 29.22476196 65.88769531 C29.23021484 74.3746232 29.22304017 82.86147269 29.20874023 91.34838867 C29.19241464 101.15051081 29.19770348 110.95244573 29.21421945 120.75456333 C29.22784764 129.18112315 29.22974745 137.60762671 29.22190344 146.03419399 C29.21723427 151.06234746 29.2165813 156.09041302 29.22651291 161.11856079 C29.23519968 165.84644937 29.22912941 170.57409732 29.21183014 175.30195999 C29.20787443 177.03371405 29.20898361 178.76548848 29.21561813 180.49723434 C29.22386024 182.86773 29.21348071 185.23746264 29.19857788 187.60791016 C29.20861613 188.62699951 29.20861613 188.62699951 29.21885717 189.66667652 C29.15836628 194.65373624 28.1032692 199.01091606 25.81762695 203.42553711 C19.63138018 209.45712771 12.88884663 208.6753849 4.78613281 208.72070312 C3.35764635 208.73218796 1.92920162 208.75258446 0.50097656 208.78222656 C-14.66494887 209.09675566 -14.66494887 209.09675566 -21.18237305 204.42553711 C-24.36117949 200.33007932 -24.61585135 196.66982748 -24.58351135 191.65823364 C-24.59030802 190.88302553 -24.59710469 190.10781742 -24.60410732 189.30911815 C-24.62307672 186.71513785 -24.62064271 184.12162982 -24.61816406 181.52758789 C-24.62714174 179.66630445 -24.63735 177.8050266 -24.6486969 175.9437561 C-24.6751995 170.88999448 -24.68223045 165.83638523 -24.68414426 160.78256083 C-24.68627667 157.62473751 -24.6926813 154.46695294 -24.70063591 151.30913925 C-24.72838975 140.29143564 -24.74064132 129.27384092 -24.73828125 118.25610352 C-24.7364787 107.98753198 -24.76813927 97.71943316 -24.81551224 87.45098126 C-24.85474325 78.63298701 -24.87083277 69.81514724 -24.86891502 60.99706638 C-24.86815022 55.73122406 -24.87669503 50.46580189 -24.90844917 45.20004654 C-24.93750154 40.24713293 -24.93772518 35.29504087 -24.91589928 30.34209824 C-24.91276281 28.52605743 -24.91984462 26.7099654 -24.93798065 24.89401245 C-25.08212716 9.45903864 -25.08212716 9.45903864 -21.28921509 4.87913513 C-14.60556891 -0.39920887 -8.1901424 0.02175462 0 0 Z " fill="#47B02C" transform="translate(312.182373046875,211.574462890625)"/>
<path d="M0 0 C1.55486648 2.58046146 1.43810567 4.55328238 1.41113281 7.55517578 C1.40678223 8.72653076 1.40243164 9.89788574 1.39794922 11.10473633 C1.36580322 12.99446167 1.36580322 12.99446167 1.33300781 14.92236328 C1.32060059 16.21376221 1.30819336 17.50516113 1.29541016 18.83569336 C1.24707942 22.8239552 1.17101614 26.80979477 1.08300781 30.79736328 C1.0569043 32.00279785 1.03080078 33.20823242 1.00390625 34.45019531 C0.92213255 37.79586765 0.82125066 41.14011853 0.70800781 44.48486328 C0.67739258 45.47953613 0.64677734 46.47420898 0.61523438 47.49902344 C0.09434149 60.16188631 0.09434149 60.16188631 -1.91699219 65.79736328 C-4.95800807 67.8247072 -6.92681688 68.49932022 -10.57714844 68.46533203 C-15.67675867 67.00951675 -19.31654992 62.51585284 -22.91699219 58.79736328 C-25.96559299 60.14686619 -27.92823138 61.61128837 -30.16699219 64.07080078 C-30.76954834 64.72508057 -31.37210449 65.37936035 -31.99291992 66.0534668 C-32.62786377 66.75270264 -33.26280762 67.45193848 -33.91699219 68.17236328 C-35.26053649 69.62818331 -36.60560661 71.08259657 -37.95214844 72.53564453 C-38.62004395 73.25703613 -39.28793945 73.97842773 -39.97607422 74.72167969 C-46.31571741 81.50150943 -52.87426677 88.09017876 -59.94824219 94.10595703 C-62.19480726 96.0360417 -64.36283123 98.04154467 -66.54199219 100.04736328 C-72.1444246 105.09552156 -78.0323342 109.71980753 -84.00439453 114.31738281 C-85.92959495 115.80711538 -87.83996939 117.31435808 -89.74902344 118.82470703 C-106.21096954 131.75059242 -123.74348125 143.4138901 -141.91699219 153.79736328 C-142.5613623 154.16958008 -143.20573242 154.54179687 -143.86962891 154.92529297 C-180.26079841 175.88173706 -219.34794176 192.78576388 -259.91699219 203.79736328 C-259.91699219 203.13736328 -259.91699219 202.47736328 -259.91699219 201.79736328 C-259.04042969 201.32169922 -258.16386719 200.84603516 -257.26074219 200.35595703 C-244.49583036 193.34429339 -232.21365379 185.59280052 -219.91699219 177.79736328 C-218.81387695 177.10030273 -217.71076172 176.40324219 -216.57421875 175.68505859 C-213.247821 173.58158701 -209.92541995 171.4719584 -206.60449219 169.35986328 C-205.59781494 168.72234131 -204.5911377 168.08481934 -203.55395508 167.42797852 C-197.70579705 163.69201984 -192.04253889 159.77772987 -186.45581055 155.66137695 C-184.24282494 154.03659139 -182.01217631 152.44842804 -179.75683594 150.88330078 C-165.29963752 140.84854004 -151.42481553 130.07729897 -137.91699219 118.79736328 C-137.41925293 118.38454102 -136.92151367 117.97171875 -136.40869141 117.54638672 C-128.56207417 111.03285069 -120.99318562 104.27464806 -113.54638672 97.30908203 C-111.92088968 95.8009793 -110.27954821 94.31238626 -108.63183594 92.82861328 C-101.46431933 86.3531107 -94.8148762 79.56855636 -88.35791016 72.38671875 C-86.95761615 70.84217215 -85.5378728 69.31880392 -84.10839844 67.80126953 C-77.23526365 60.48149629 -71.02000769 52.76506876 -64.91699219 44.79736328 C-63.94607602 43.53791092 -62.97472038 42.27879724 -62.00292969 41.02001953 C-59.63503162 37.95030972 -57.27407892 34.8753811 -54.91699219 31.79736328 C-56.34308378 28.43533389 -58.06047734 26.56060749 -60.85449219 24.23486328 C-67.83066125 18.38009709 -67.83066125 18.38009709 -68.41699219 14.42236328 C-67.92147706 10.82987863 -67.38327133 9.36986518 -64.75531006 6.92596436 C-60.62180658 4.38827676 -55.58430947 4.15851925 -50.86230469 3.52392578 C-49.68739471 3.35106049 -48.51248474 3.17819519 -47.30197144 3.00009155 C-44.82040486 2.6392813 -42.33735225 2.28856677 -39.85302734 1.94726562 C-36.05937194 1.42475703 -32.27159594 0.86965848 -28.48339844 0.30908203 C-26.06831102 -0.03790466 -23.65295372 -0.38301919 -21.23730469 -0.72607422 C-20.10793488 -0.89054047 -18.97856506 -1.05500671 -17.81497192 -1.22445679 C-4.76733128 -2.9908143 -4.76733128 -2.9908143 0 0 Z " fill="#47B02B" transform="translate(351.9169921875,94.20263671875)"/>
<path d="M0 0 C1.0979187 -0.00574036 1.0979187 -0.00574036 2.21801758 -0.01159668 C3.75766382 -0.0143053 5.29735691 -0.00701781 6.83691406 0.00976562 C9.18139113 0.03119416 11.5228047 0.00993221 13.8671875 -0.015625 C15.36979837 -0.01298153 16.87240734 -0.00785615 18.375 0 C19.06891846 -0.00809692 19.76283691 -0.01619385 20.4777832 -0.02453613 C25.48570201 0.07100687 28.30740238 1.43352325 32.1875 4.53125 C35.61668995 8.43343166 36.31188513 11.66949457 36.32794189 16.7802124 C36.33365204 17.8680603 36.33936218 18.9559082 36.34524536 20.07672119 C36.34636322 21.27053406 36.34748108 22.46434692 36.34863281 23.69433594 C36.35608017 25.58007324 36.35608017 25.58007324 36.36367798 27.50390625 C36.37679455 30.95450126 36.38324572 34.40507682 36.38768864 37.85569286 C36.39062114 40.01278888 36.39472634 42.16987961 36.39919281 44.32697296 C36.41286707 51.07966517 36.42253353 57.83234525 36.4263947 64.58505034 C36.43087254 72.37299652 36.44840786 80.16076692 36.4773953 87.94865966 C36.49903634 93.97256253 36.50910031 99.99641605 36.51043582 106.02035737 C36.51148231 109.61609547 36.51735642 113.21166834 36.53525543 116.80736542 C36.55485025 120.82188008 36.55043753 124.83602869 36.54394531 128.85058594 C36.55776749 130.62915985 36.55776749 130.62915985 36.5718689 132.44366455 C36.54079533 138.57633843 36.25985714 143.16131003 33.1875 148.53125 C26.86678971 154.53592478 20.24296293 153.74915732 12.04614258 153.77148438 C9.89299579 153.78116906 7.74081268 153.81219452 5.58789062 153.84375 C4.20833897 153.85028289 2.82878052 153.85553224 1.44921875 153.859375 C-0.42310425 153.87339355 -0.42310425 153.87339355 -2.33325195 153.88769531 C-7.45393682 153.36308652 -10.68589119 151.77965436 -14.125 147.96875 C-16.59629727 144.39909838 -16.93973884 142.59237981 -16.95294189 138.28192139 C-16.95865204 137.16876053 -16.96436218 136.05559967 -16.97024536 134.90870667 C-16.97136322 133.68167526 -16.97248108 132.45464386 -16.97363281 131.19042969 C-16.97859772 129.90255051 -16.98356262 128.61467133 -16.98867798 127.2877655 C-17.0018114 123.74833827 -17.00824907 120.20893003 -17.01268864 116.66948223 C-17.0156186 114.4579588 -17.01972332 112.24644056 -17.02419281 110.03491974 C-17.03787188 103.1151042 -17.04753582 96.19530053 -17.0513947 89.2754724 C-17.05587289 81.28884631 -17.07340783 73.30239158 -17.1023953 65.31581759 C-17.12402307 59.14248261 -17.13409961 52.9691958 -17.13543582 46.79582334 C-17.13648332 43.10900111 -17.14237881 39.42233988 -17.16025543 35.73555756 C-17.1798213 31.62014911 -17.17544279 27.50509827 -17.16894531 23.38964844 C-17.1781601 22.17071396 -17.18737488 20.95177948 -17.1968689 19.69590759 C-17.14524832 9.27345125 -17.14524832 9.27345125 -13.8125 4.53125 C-9.39826233 0.7015315 -5.68179043 -0.06629745 0 0 Z " fill="#47B02B" transform="translate(224.8125,266.46875)"/>
<path d="M0 0 C1.95969727 -0.0309375 1.95969727 -0.0309375 3.95898438 -0.0625 C16.0924244 -0.111848 16.0924244 -0.111848 21.6875 3.25 C26.31585756 8.12195533 26.83828466 12.08564022 26.84863281 18.5637207 C26.85608017 19.67645859 26.85608017 19.67645859 26.86367798 20.81167603 C26.8782853 23.26638721 26.8850995 25.72103374 26.890625 28.17578125 C26.896378 29.88347882 26.90213572 31.59117637 26.90789795 33.2988739 C26.91840412 36.88081157 26.92424918 40.46272682 26.92773438 44.04467773 C26.93321574 48.62791151 26.95723764 53.2108477 26.98570633 57.79398823 C27.00435814 61.3225134 27.00953968 64.85096728 27.01107025 68.37953758 C27.014092 70.06878472 27.02210438 71.75803074 27.03525543 73.44722939 C27.05236804 75.81441301 27.05042316 78.18087481 27.04394531 80.5480957 C27.05776749 81.58867882 27.05776749 81.58867882 27.0718689 82.65028381 C27.03263484 87.24215812 26.08365642 90.34457651 23.6875 94.25 C17.26726514 100.18871724 10.79967395 99.46775285 2.54614258 99.49023438 C0.39299579 99.49991906 -1.75918732 99.53094452 -3.91210938 99.5625 C-5.29166103 99.56903289 -6.67121948 99.57428224 -8.05078125 99.578125 C-9.92310425 99.59214355 -9.92310425 99.59214355 -11.83325195 99.60644531 C-16.95393682 99.08183652 -20.18589119 97.49840436 -23.625 93.6875 C-26.4150134 89.65748064 -26.46613812 86.73658326 -26.47363281 81.95800781 C-26.48108017 80.83085861 -26.48108017 80.83085861 -26.48867798 79.68093872 C-26.50331408 77.1883249 -26.51010494 74.69577478 -26.515625 72.203125 C-26.52137646 70.47157794 -26.52713419 68.7400309 -26.53289795 67.00848389 C-26.54341287 63.37349144 -26.54925192 59.73852114 -26.55273438 56.10351562 C-26.55821191 51.45187361 -26.58222189 46.80052539 -26.61070633 42.14897537 C-26.62935896 38.56983597 -26.63453976 34.99076685 -26.63607025 31.41158295 C-26.63909275 29.69721627 -26.64710771 27.98285072 -26.66025543 26.2685318 C-26.67736665 23.86531983 -26.67542324 21.46281898 -26.66894531 19.05957031 C-26.6781601 18.35492645 -26.68737488 17.65028259 -26.6968689 16.92428589 C-26.65796953 12.3027172 -25.72503956 9.18158945 -23.3125 5.25 C-16.50269393 -1.21058524 -8.92169274 0.03490149 0 0 Z " fill="#48B02B" transform="translate(154.3125,320.75)"/>
</svg>
