<svg xml:space="preserve" style="max-height: 500px" viewBox="136.4 158.39999999999998 937.1999999999999 954.8" y="0px" x="0px" xmlns:xlink="http://www.w3.org/1999/xlink" xmlns="http://www.w3.org/2000/svg" version="1.1" width="937.1999999999999" height="954.8">
<g id="background">
	<rect height="2200" width="2200" style="fill:#FFFFFF;"/>
</g>
<g id="Objects">
	<g>
		<path d="M1932.784,575.365l-25.01,25.01c1.849,15.108,2.769,30.397,2.769,45.827&#10;&#9;&#9;&#9;c0,50.531-9.892,99.536-29.391,145.648c-18.854,44.557-45.837,84.58-80.208,118.96c-34.38,34.371-74.403,61.362-118.96,80.207&#10;&#9;&#9;&#9;c-46.121,19.509-95.126,29.391-145.658,29.391c-50.522,0-99.526-9.883-145.648-29.391c-44.557-18.845-84.58-45.837-118.96-80.207&#10;&#9;&#9;&#9;c-34.37-34.38-61.353-74.403-80.207-118.96c-19.499-46.112-29.391-95.117-29.391-145.648c0-50.532,9.892-99.536,29.391-145.658&#10;&#9;&#9;&#9;c18.854-44.556,45.837-84.58,80.207-118.95c34.38-34.38,74.403-61.362,118.96-80.207c46.121-19.509,95.126-29.401,145.648-29.401&#10;&#9;&#9;&#9;c50.532,0,99.536,9.892,145.658,29.401c44.557,18.845,84.58,45.827,118.96,80.207c5.122,5.121,10.072,10.366,14.852,15.734&#10;&#9;&#9;&#9;l16.36-16.36c1.271-1.271,2.589-2.475,3.945-3.604c-73.711-82.152-180.711-133.831-299.775-133.831&#10;&#9;&#9;&#9;c-222.384,0-402.659,180.284-402.659,402.668s180.275,402.659,402.659,402.659c222.394,0,402.669-180.275,402.669-402.659&#10;&#9;&#9;&#9;C1938.996,622.027,1936.862,598.355,1932.784,575.365z" style="fill:#94DB49;"/>
		<path d="M1966.253,515.073l-382.948,382.948c-15.688,15.688-41.124,15.688-56.813,0L1274.43,645.958&#10;&#9;&#9;&#9;c-15.688-15.688-15.688-41.124,0-56.813l63.869-63.869c15.688-15.688,41.123-15.688,56.812-0.001l159.789,159.775l290.67-290.67&#10;&#9;&#9;&#9;c15.689-15.689,41.127-15.688,56.815,0.002l63.872,63.88C1981.942,473.951,1981.941,499.386,1966.253,515.073z" style="fill:#94DB49;"/>
	</g>
	<g>
		<circle r="402.664" cy="646.198" cx="624.645" style="fill:#94DB49;"/>
		<path d="M886.032,565.6L596.659,854.973c-11.855,11.855-31.076,11.855-42.93,0L363.257,664.502&#10;&#9;&#9;&#9;c-11.855-11.855-11.855-31.076,0-42.93l48.263-48.263c11.855-11.855,31.074-11.855,42.93-0.001l120.744,120.734l219.644-219.644&#10;&#9;&#9;&#9;c11.855-11.855,31.077-11.855,42.932,0.001l48.265,48.271C897.887,534.526,897.887,553.745,886.032,565.6z" style="fill:#FFFFFF;"/>
	</g>
	<g>
		<path d="M1932.784,1482.97l-25.01,25.01c1.849,15.108,2.769,30.397,2.769,45.827c0,50.531-9.892,99.536-29.391,145.648&#10;&#9;&#9;&#9;c-18.854,44.557-45.837,84.58-80.208,118.96c-34.38,34.371-74.403,61.362-118.96,80.207&#10;&#9;&#9;&#9;c-46.121,19.509-95.126,29.391-145.658,29.391c-50.522,0-99.526-9.882-145.648-29.391c-44.557-18.845-84.58-45.837-118.96-80.207&#10;&#9;&#9;&#9;c-34.37-34.38-61.353-74.403-80.207-118.96c-19.499-46.112-29.391-95.117-29.391-145.648c0-50.532,9.892-99.536,29.391-145.658&#10;&#9;&#9;&#9;c18.854-44.556,45.837-84.58,80.207-118.95c34.38-34.38,74.403-61.362,118.96-80.207c46.121-19.509,95.126-29.401,145.648-29.401&#10;&#9;&#9;&#9;c50.532,0,99.536,9.892,145.658,29.401c44.557,18.845,84.58,45.827,118.96,80.207c5.122,5.121,10.072,10.366,14.852,15.734&#10;&#9;&#9;&#9;l16.36-16.36c1.271-1.271,2.589-2.475,3.945-3.604c-73.711-82.152-180.711-133.831-299.775-133.831&#10;&#9;&#9;&#9;c-222.384,0-402.659,180.284-402.659,402.668s180.275,402.659,402.659,402.659c222.394,0,402.669-180.275,402.669-402.659&#10;&#9;&#9;&#9;C1938.996,1529.632,1936.862,1505.96,1932.784,1482.97z"/>
		<path d="M1966.253,1422.678l-382.948,382.948c-15.688,15.688-41.124,15.688-56.813,0l-252.063-252.063&#10;&#9;&#9;&#9;c-15.688-15.688-15.688-41.124,0-56.813l63.869-63.869c15.688-15.688,41.123-15.688,56.812-0.001l159.789,159.775l290.67-290.67&#10;&#9;&#9;&#9;c15.689-15.689,41.127-15.688,56.815,0.002l63.872,63.88C1981.942,1381.556,1981.941,1406.991,1966.253,1422.678z"/>
	</g>
	<g>
		<circle r="402.664" cy="1553.802" cx="624.645"/>
		<path d="M886.032,1473.205l-289.374,289.374c-11.855,11.855-31.076,11.855-42.93,0l-190.471-190.471&#10;&#9;&#9;&#9;c-11.855-11.855-11.855-31.075,0-42.93l48.263-48.263c11.855-11.854,31.074-11.855,42.93-0.001l120.744,120.734l219.644-219.644&#10;&#9;&#9;&#9;c11.855-11.855,31.077-11.855,42.932,0.001l48.265,48.271C897.887,1442.131,897.887,1461.35,886.032,1473.205z" style="fill:#FFFFFF;"/>
	</g>
</g>
</svg>