<?xml version="1.0" encoding="UTF-8"?>
<svg version="1.1" xmlns="http://www.w3.org/2000/svg" width="512" height="512">
<path d="M0 0 C3.83084349 2.61193874 6.65161815 5.67823629 8.75 9.875 C10.24598587 19.36091038 6.90229454 25.15178364 1.75 32.875 C-6.59476763 46.15369194 -13.23659468 60.02220105 -18.25 74.875 C-18.58427002 75.84977295 -18.58427002 75.84977295 -18.92529297 76.84423828 C-29.65533329 108.68746596 -31.1214635 145.194855 -23.25 177.875 C-23.04101074 178.76348633 -22.83202148 179.65197266 -22.61669922 180.56738281 C-11.02790011 228.39830648 19.45037991 270.67410927 61.20654297 296.64746094 C82.49593587 309.53798603 105.16874055 318.57253949 129.75 322.875 C130.7409668 323.05160156 131.73193359 323.22820312 132.75292969 323.41015625 C142.56823567 324.99646833 152.20953294 325.27114198 162.125 325.25 C162.95505554 325.25045319 163.78511108 325.25090637 164.64031982 325.25137329 C181.13324929 325.22502676 196.73412745 323.35381815 212.6875 319.0625 C219.12395859 317.34233045 224.09639621 317.52316411 230.0625 320.5625 C233.84618523 323.81822915 236.37781923 326.3608809 237.1328125 331.4609375 C237.51470001 340.7535335 233.3189753 346.5049714 227.75 353.5 C227.27578613 354.09901123 226.80157227 354.69802246 226.31298828 355.31518555 C221.11035538 361.80018151 215.50243224 367.87804354 209.75 373.875 C208.96753906 374.69871094 208.18507813 375.52242188 207.37890625 376.37109375 C192.57225721 391.60003581 174.37150788 403.79693398 155.75 413.875 C155.05310059 414.25221191 154.35620117 414.62942383 153.63818359 415.01806641 C126.19647354 429.55492636 93.54648021 438.90809515 62.421875 439.078125 C61.12759834 439.08871445 61.12759834 439.08871445 59.80717468 439.09951782 C24.39158918 439.32358775 24.39158918 439.32358775 8.75 435.875 C7.28602783 435.56900879 7.28602783 435.56900879 5.79248047 435.25683594 C-36.38176656 426.33498599 -74.14401976 406.73053728 -105.25 376.875 C-105.81219238 376.34003906 -106.37438477 375.80507813 -106.95361328 375.25390625 C-115.54361599 367.04088682 -123.29748586 358.51928967 -130.25 348.875 C-130.96470459 347.8862085 -130.96470459 347.8862085 -131.69384766 346.87744141 C-167.04227686 297.34305281 -180.70383886 236.45604316 -171.03540039 176.49121094 C-163.06523073 131.34474658 -141.83212614 90.86880122 -110.25 57.875 C-109.77981445 57.37758301 -109.30962891 56.88016602 -108.82519531 56.36767578 C-85.40952207 31.6916464 -54.99276965 13.74394251 -23.125 2.3125 C-22.17737793 1.96558105 -21.22975586 1.61866211 -20.25341797 1.26123047 C-13.33217718 -1.1266282 -7.06346635 -2.44504604 0 0 Z " fill="#000000" transform="translate(221.25,41.125)"/>
<path d="M0 0 C-1.50700687 4.57029603 -3.03768491 9.12917445 -4.6484375 13.6640625 C-10.9817363 31.72649987 -16.03782441 50.4918865 -16.2734375 69.7265625 C-16.29222961 71.1260614 -16.29222961 71.1260614 -16.31140137 72.55383301 C-16.54218118 93.89787059 -16.19574537 114.17929365 -11 135 C-10.77006348 135.92796387 -10.54012695 136.85592773 -10.30322266 137.81201172 C-5.53546414 156.36004324 1.98059598 174.14016973 11 191 C11.92039063 192.73443359 11.92039063 192.73443359 12.859375 194.50390625 C23.11971007 213.13786188 36.45456819 229.56580112 51 245 C51.68964844 245.7321875 52.37929687 246.464375 53.08984375 247.21875 C58.34046478 252.63043303 64.09590934 257.3220234 70 262 C71.43085938 263.17369141 71.43085938 263.17369141 72.890625 264.37109375 C116.34168674 299.18764963 166.753515 309.18456824 221 310 C205.92624943 325.13604523 187.59084259 335.70152974 168 344 C167.02716064 344.41306396 167.02716064 344.41306396 166.03466797 344.83447266 C125.08898682 361.8891764 76.96615198 362.77903019 35 349 C33.92733887 348.65412842 33.92733887 348.65412842 32.83300781 348.30126953 C9.71221863 340.69560142 -11.73208195 328.02090576 -30 312 C-30.84820312 311.26136719 -31.69640625 310.52273438 -32.5703125 309.76171875 C-35.07931052 307.54044986 -37.54802617 305.28397562 -40 303 C-40.73863281 302.31550781 -41.47726563 301.63101562 -42.23828125 300.92578125 C-69.70772889 274.52974009 -88.22849408 236.6898782 -94.625 199.4375 C-94.74617188 198.77298828 -94.86734375 198.10847656 -94.9921875 197.42382812 C-103.24728602 150.27106431 -92.50895161 98.63958371 -65.14428711 59.20581055 C-63.14953785 56.42682057 -61.08837492 53.70970961 -59 51 C-58.33355469 50.12214844 -57.66710937 49.24429688 -56.98046875 48.33984375 C-46.18534105 34.46667556 -19.06968349 0 0 0 Z " fill="#F8A724" transform="translate(177,90)"/>
<path d="M0 0 C10.55992261 5.70478578 15.4376433 20.9795147 20.66601562 31.12109375 C21.54870117 32.79365234 21.54870117 32.79365234 22.44921875 34.5 C22.97136963 35.50466309 23.49352051 36.50932617 24.03149414 37.54443359 C27.3952456 42.67767064 32.24697045 45.17759327 37.59375 47.90625 C38.91286132 48.59485883 40.23186849 49.28366719 41.55078125 49.97265625 C43.6049167 51.03767284 45.66049601 52.09972881 47.71826172 53.15771484 C66.43058157 62.80337936 66.43058157 62.80337936 69.7890625 70.1015625 C71.49063365 75.63959531 70.8114637 80.09656 68.2890625 85.3515625 C61.18742327 93.51844762 50.07010603 97.90284686 40.55932617 102.77026367 C38.69692725 103.72616623 36.84235541 104.69604071 34.98828125 105.66796875 C33.89346436 106.23201416 32.79864746 106.79605957 31.6706543 107.37719727 C26.39915174 110.76037373 23.89390113 115.57499485 21.109375 121.03125 C20.42076617 122.35036132 19.73195781 123.66936849 19.04296875 124.98828125 C17.97795216 127.0424167 16.91589619 129.09799601 15.85791016 131.15576172 C6.82156765 148.68601388 6.82156765 148.68601388 0.55078125 152.63671875 C-5.01984205 154.38868502 -9.80038469 154.71938264 -15.2109375 152.2265625 C-21.56458221 148.08024668 -24.24139361 142.2913728 -27.6484375 135.6640625 C-28.79613454 133.49960721 -29.94456382 131.33554002 -31.09375 129.171875 C-32.52102734 126.45571782 -33.94546898 123.73829544 -35.35839844 121.01464844 C-36.22878587 119.34662499 -37.12453062 117.69189127 -38.0234375 116.0390625 C-38.46300781 115.19988281 -38.90257812 114.36070312 -39.35546875 113.49609375 C-45.57649796 105.88679276 -57.22096395 101.91339175 -65.74414062 97.48632812 C-80.9818988 89.42239016 -80.9818988 89.42239016 -84.2109375 82.3515625 C-85.91250865 76.81352969 -85.2333387 72.356565 -82.7109375 67.1015625 C-75.60929827 58.93467738 -64.49198103 54.55027814 -54.98120117 49.68286133 C-53.11880225 48.72695877 -51.26423041 47.75708429 -49.41015625 46.78515625 C-48.31533936 46.22111084 -47.22052246 45.65706543 -46.0925293 45.07592773 C-40.81158855 41.68669397 -38.29677354 36.84774983 -35.49609375 31.38671875 C-34.80281007 30.06311139 -34.10944829 28.73954494 -33.41601562 27.41601562 C-32.34317836 25.35248977 -31.27275617 23.28774512 -30.2043457 21.22192383 C-29.16189555 19.21109045 -28.11063028 17.20504916 -27.05859375 15.19921875 C-26.74696793 14.58965836 -26.4353421 13.98009796 -26.11427307 13.35206604 C-20.60894921 2.880331 -12.34562071 -4.31878604 0 0 Z " fill="#000000" transform="translate(375.2109375,195.7734375)"/>
<path d="M0 0 C10.55992261 5.70478578 15.4376433 20.9795147 20.66601562 31.12109375 C21.54870117 32.79365234 21.54870117 32.79365234 22.44921875 34.5 C22.97136963 35.50466309 23.49352051 36.50932617 24.03149414 37.54443359 C27.3952456 42.67767064 32.24697045 45.17759327 37.59375 47.90625 C38.91286132 48.59485883 40.23186849 49.28366719 41.55078125 49.97265625 C43.6049167 51.03767284 45.66049601 52.09972881 47.71826172 53.15771484 C66.43058157 62.80337936 66.43058157 62.80337936 69.7890625 70.1015625 C71.49063365 75.63959531 70.8114637 80.09656 68.2890625 85.3515625 C61.18742327 93.51844762 50.07010603 97.90284686 40.55932617 102.77026367 C38.69692725 103.72616623 36.84235541 104.69604071 34.98828125 105.66796875 C33.89346436 106.23201416 32.79864746 106.79605957 31.6706543 107.37719727 C26.39915174 110.76037373 23.89390113 115.57499485 21.109375 121.03125 C20.42076617 122.35036132 19.73195781 123.66936849 19.04296875 124.98828125 C17.97795216 127.0424167 16.91589619 129.09799601 15.85791016 131.15576172 C6.82156765 148.68601388 6.82156765 148.68601388 0.55078125 152.63671875 C-5.01984205 154.38868502 -9.80038469 154.71938264 -15.2109375 152.2265625 C-21.56458221 148.08024668 -24.24139361 142.2913728 -27.6484375 135.6640625 C-28.79613454 133.49960721 -29.94456382 131.33554002 -31.09375 129.171875 C-32.52102734 126.45571782 -33.94546898 123.73829544 -35.35839844 121.01464844 C-36.22878587 119.34662499 -37.12453062 117.69189127 -38.0234375 116.0390625 C-38.46300781 115.19988281 -38.90257812 114.36070312 -39.35546875 113.49609375 C-45.57649796 105.88679276 -57.22096395 101.91339175 -65.74414062 97.48632812 C-80.9818988 89.42239016 -80.9818988 89.42239016 -84.2109375 82.3515625 C-85.91250865 76.81352969 -85.2333387 72.356565 -82.7109375 67.1015625 C-75.60929827 58.93467738 -64.49198103 54.55027814 -54.98120117 49.68286133 C-53.11880225 48.72695877 -51.26423041 47.75708429 -49.41015625 46.78515625 C-48.31533936 46.22111084 -47.22052246 45.65706543 -46.0925293 45.07592773 C-40.81158855 41.68669397 -38.29677354 36.84774983 -35.49609375 31.38671875 C-34.80281007 30.06311139 -34.10944829 28.73954494 -33.41601562 27.41601562 C-32.34317836 25.35248977 -31.27275617 23.28774512 -30.2043457 21.22192383 C-29.16189555 19.21109045 -28.11063028 17.20504916 -27.05859375 15.19921875 C-26.74696793 14.58965836 -26.4353421 13.98009796 -26.11427307 13.35206604 C-20.60894921 2.880331 -12.34562071 -4.31878604 0 0 Z " fill="#000000" transform="translate(311.2109375,51.7734375)"/>
<path d="M0 0 C0.66 0 1.32 0 2 0 C2.49886719 1.0621875 2.99773437 2.124375 3.51171875 3.21875 C8.68870659 13.61696294 13.43464284 18.99312392 24 24 C24.78761719 24.39445312 25.57523437 24.78890625 26.38671875 25.1953125 C26.91910156 25.46085937 27.45148438 25.72640625 28 26 C28 26.66 28 27.32 28 28 C26.90300781 28.556875 25.80601562 29.11375 24.67578125 29.6875 C13.76051071 35.20754711 13.76051071 35.20754711 7 45 C6.07444084 46.6733273 5.1367982 48.34002501 4.1875 50 C3.45616905 51.33214746 2.72619141 52.66504388 2 54 C1.34 54 0.68 54 0 54 C-0.53367187 52.91460937 -1.06734375 51.82921875 -1.6171875 50.7109375 C-6.12861336 41.90945516 -9.63729605 36.09618298 -19 32 C-20.38391335 31.22402001 -21.76013417 30.43401321 -23.125 29.625 C-24.07375 29.08875 -25.0225 28.5525 -26 28 C-26 27.34 -26 26.68 -26 26 C-24.91460937 25.46632813 -23.82921875 24.93265625 -22.7109375 24.3828125 C-13.90945516 19.87138664 -8.09618298 16.36270395 -4 7 C-3.22402001 5.61608665 -2.43401321 4.23986583 -1.625 2.875 C-1.08875 1.92625 -0.5525 0.9775 0 0 Z " fill="#F4A524" transform="translate(367,245)"/>
<path d="M0 0 C0.66 0 1.32 0 2 0 C2.49886719 1.0621875 2.99773437 2.124375 3.51171875 3.21875 C8.68870659 13.61696294 13.43464284 18.99312392 24 24 C24.78761719 24.39445312 25.57523437 24.78890625 26.38671875 25.1953125 C26.91910156 25.46085937 27.45148438 25.72640625 28 26 C28 26.66 28 27.32 28 28 C26.90300781 28.556875 25.80601562 29.11375 24.67578125 29.6875 C13.76051071 35.20754711 13.76051071 35.20754711 7 45 C6.07444084 46.6733273 5.1367982 48.34002501 4.1875 50 C3.45616905 51.33214746 2.72619141 52.66504388 2 54 C1.34 54 0.68 54 0 54 C-0.53367187 52.91460937 -1.06734375 51.82921875 -1.6171875 50.7109375 C-6.12861336 41.90945516 -9.63729605 36.09618298 -19 32 C-20.38391335 31.22402001 -21.76013417 30.43401321 -23.125 29.625 C-24.07375 29.08875 -25.0225 28.5525 -26 28 C-26 27.34 -26 26.68 -26 26 C-24.91460937 25.46632813 -23.82921875 24.93265625 -22.7109375 24.3828125 C-13.90945516 19.87138664 -8.09618298 16.36270395 -4 7 C-3.22402001 5.61608665 -2.43401321 4.23986583 -1.625 2.875 C-1.08875 1.92625 -0.5525 0.9775 0 0 Z " fill="#F4A524" transform="translate(303,101)"/>
</svg>
